<svg xmlns="http://www.w3.org/2000/svg" viewBox="0 0 3488.0600000000004 140" width="3488.0600000000004" height="140">
  <rect width="3488.0600000000004" height="140" fill="#1a1a2e"/>
  <text x="1744.0300000000002" y="15" text-anchor="middle" fill="#e94560" font-size="13" font-weight="bold" font-family="monospace">IR Signal Timing — Mitsubishi Heavy AC (38 kHz Carrier, NEC-like encoding)</text>
  <text x="30" y="20" fill="#e94560" font-size="11" font-family="monospace">Header</text><rect x="30.0" y="20.0" width="357.0" height="60.0" fill="#e94560" opacity="0.9"/><line x1="30.0" y1="20" x2="30.0" y2="90" stroke="#333" stroke-width="0.5"/><rect x="387.0" y="80.0" width="448.5" height="10.0" fill="#4ecca3" opacity="0.9"/><text x="30" y="115" fill="#888" font-size="9" font-family="monospace">5950μs</text><text x="387.0" y="115" fill="#888" font-size="9" font-family="monospace">7475μs</text><line x1="850.5" y1="15" x2="850.5" y2="90" stroke="#555" stroke-width="1" stroke-dasharray="3,3"/><text x="855.5" y="20" fill="#e94560" font-size="11" font-family="monospace">B0 = 0xFF (all 1s)</text><rect x="855.5" y="20.0" width="30.5" height="60.0" fill="#e94560" opacity="0.9"/><line x1="855.5" y1="20" x2="855.5" y2="90" stroke="#333" stroke-width="0.5"/><rect x="886.0" y="80.0" width="207.2" height="10.0" fill="#4ecca3" opacity="0.9"/><rect x="1093.2" y="20.0" width="30.5" height="60.0" fill="#e94560" opacity="0.9"/><line x1="1093.2" y1="20" x2="1093.2" y2="90" stroke="#333" stroke-width="0.5"/><rect x="1123.7" y="80.0" width="207.2" height="10.0" fill="#4ecca3" opacity="0.9"/><rect x="1330.9" y="20.0" width="30.5" height="60.0" fill="#e94560" opacity="0.9"/><line x1="1330.9" y1="20" x2="1330.9" y2="90" stroke="#333" stroke-width="0.5"/><rect x="1361.4" y="80.0" width="207.2" height="10.0" fill="#4ecca3" opacity="0.9"/><rect x="1568.7" y="20.0" width="30.5" height="60.0" fill="#e94560" opacity="0.9"/><line x1="1568.7" y1="20" x2="1568.7" y2="90" stroke="#333" stroke-width="0.5"/><rect x="1599.1" y="80.0" width="207.2" height="10.0" fill="#4ecca3" opacity="0.9"/><rect x="1806.4" y="20.0" width="30.5" height="60.0" fill="#e94560" opacity="0.9"/><line x1="1806.4" y1="20" x2="1806.4" y2="90" stroke="#333" stroke-width="0.5"/><rect x="1836.9" y="80.0" width="207.2" height="10.0" fill="#4ecca3" opacity="0.9"/><rect x="2044.1" y="20.0" width="30.5" height="60.0" fill="#e94560" opacity="0.9"/><line x1="2044.1" y1="20" x2="2044.1" y2="90" stroke="#333" stroke-width="0.5"/><rect x="2074.6" y="80.0" width="207.2" height="10.0" fill="#4ecca3" opacity="0.9"/><rect x="2281.8" y="20.0" width="30.5" height="60.0" fill="#e94560" opacity="0.9"/><line x1="2281.8" y1="20" x2="2281.8" y2="90" stroke="#333" stroke-width="0.5"/><rect x="2312.3" y="80.0" width="207.2" height="10.0" fill="#4ecca3" opacity="0.9"/><rect x="2519.5" y="20.0" width="30.5" height="60.0" fill="#e94560" opacity="0.9"/><line x1="2519.5" y1="20" x2="2519.5" y2="90" stroke="#333" stroke-width="0.5"/><rect x="2550.0" y="80.0" width="207.2" height="10.0" fill="#4ecca3" opacity="0.9"/><text x="855.5" y="115" fill="#888" font-size="9" font-family="monospace">508μs</text><text x="885.98" y="115" fill="#888" font-size="8" font-family="monospace">3454μs(Bit1)</text><text x="2787.26" y="35" fill="#888" font-size="9" font-family="monospace">... B1 0x00 (all 0s, 1496μs spaces) +</text><text x="2787.26" y="48" fill="#888" font-size="9" font-family="monospace">... B2-B7 (64 bits total, LSB-first) ...</text><text x="2982.26" y="20" fill="#e94560" font-size="11" font-family="monospace">Trailer</text><rect x="2982.3" y="20.0" width="30.5" height="60.0" fill="#e94560" opacity="0.9"/><line x1="2982.3" y1="20" x2="2982.3" y2="90" stroke="#333" stroke-width="0.5"/><rect x="3012.7" y="80.0" width="445.3" height="10.0" fill="#4ecca3" opacity="0.9"/><text x="2982.26" y="115" fill="#888" font-size="9" font-family="monospace">508μs</text><text x="3012.7400000000002" y="115" fill="#888" font-size="9" font-family="monospace">7422μs</text>
  <!-- Legend -->
  <rect x="3258.0600000000004" y="115" width="18" height="10" fill="#e94560" opacity="0.9"/>
  <text x="3280.0600000000004" y="124" fill="#ccc" font-size="9" font-family="monospace">Mark (IR LED ON, 38 kHz)</text>
  <rect x="3258.0600000000004" y="130" width="18" height="10" fill="#4ecca3" opacity="0.9"/>
  <text x="3280.0600000000004" y="139" fill="#ccc" font-size="9" font-family="monospace">Space (IR LED OFF)</text>
</svg>